<?xml version="1.0" encoding="utf-8"?>
<!-- Generator: Adobe Illustrator 16.0.0, SVG Export Plug-In . SVG Version: 6.00 Build 0)  -->
<!DOCTYPE svg PUBLIC "-//W3C//DTD SVG 1.1//EN" "http://www.w3.org/Graphics/SVG/1.1/DTD/svg11.dtd" [
	<!ENTITY ns_flows "http://ns.adobe.com/Flows/1.0/">
	<!ENTITY ns_extend "http://ns.adobe.com/Extensibility/1.0/">
	<!ENTITY ns_ai "http://ns.adobe.com/AdobeIllustrator/10.0/">
	<!ENTITY ns_graphs "http://ns.adobe.com/Graphs/1.0/">
]>
<svg version="1.1" id="Layer_1" xmlns:x="&ns_extend;" xmlns:i="&ns_ai;" xmlns:graph="&ns_graphs;"
	 xmlns="http://www.w3.org/2000/svg" xmlns:xlink="http://www.w3.org/1999/xlink" xmlns:a="http://ns.adobe.com/AdobeSVGViewerExtensions/3.0/"
	 x="0px" y="0px" width="425.333px" height="117.667px" viewBox="0 0 425.333 117.667" enable-background="new 0 0 425.333 117.667"
	 xml:space="preserve">
<g>
	<path d="M106.161,87.633c-0.596-0.264-1.314-0.456-1.91-0.456c-2.154,0-3.363,1.56-3.363,3.731c0,2.031,1.226,3.73,3.241,3.73
		c0.701,0,1.349-0.157,2.015-0.402l0.105,1.033c-0.753,0.264-1.454,0.315-2.295,0.315c-2.873,0-4.274-2.189-4.274-4.677
		c0-2.75,1.769-4.678,4.414-4.678c1.069,0,1.839,0.246,2.155,0.352L106.161,87.633z"/>
	<path d="M115.337,95.095c-0.771,0.315-1.769,0.49-2.592,0.49c-2.96,0-4.064-1.997-4.064-4.677c0-2.732,1.506-4.678,3.766-4.678
		c2.522,0,3.556,2.033,3.556,4.433v0.561h-6.114c0,1.892,1.016,3.415,2.943,3.415c0.806,0,1.979-0.332,2.505-0.665V95.095z
		 M114.794,90.277c0-1.559-0.63-3.101-2.277-3.101c-1.629,0-2.627,1.63-2.627,3.101H114.794z"/>
	<path d="M119.328,82.237h1.104v13.138h-1.104V82.237z"/>
	<path d="M130.432,95.095c-0.771,0.315-1.769,0.49-2.592,0.49c-2.96,0-4.064-1.997-4.064-4.677c0-2.732,1.506-4.678,3.766-4.678
		c2.522,0,3.556,2.033,3.556,4.433v0.561h-6.114c0,1.892,1.016,3.415,2.943,3.415c0.806,0,1.979-0.332,2.505-0.665V95.095z
		 M129.889,90.277c0-1.559-0.63-3.101-2.277-3.101c-1.629,0-2.627,1.63-2.627,3.101H129.889z"/>
	<path d="M134.317,82.237h1.104v5.71h0.035c0.158-0.438,1.033-1.717,2.785-1.717c2.627,0,3.679,1.963,3.679,4.678
		c0,2.645-1.227,4.677-3.679,4.677c-1.279,0-2.189-0.49-2.785-1.629h-0.035v1.419h-1.104V82.237z M138.066,87.177
		c-2.014,0-2.645,2.103-2.645,3.731s0.683,3.73,2.645,3.73c2.102,0,2.645-1.996,2.645-3.73S140.168,87.177,138.066,87.177z"/>
	<path d="M145.385,88.438c0-0.981,0-1.349-0.07-1.997h1.104v1.717h0.035c0.403-0.998,1.156-1.928,2.295-1.928
		c0.263,0,0.578,0.053,0.771,0.105v1.156c-0.228-0.07-0.526-0.105-0.806-0.105c-1.751,0-2.225,1.963-2.225,3.574v4.414h-1.104
		V88.438z"/>
	<path d="M157.574,93.938h-0.035c-0.491,1.069-1.734,1.646-2.838,1.646c-2.54,0-2.943-1.716-2.943-2.522
		c0-2.995,3.188-3.135,5.5-3.135h0.21v-0.456c0-1.524-0.543-2.295-2.032-2.295c-0.929,0-1.804,0.21-2.628,0.735v-1.068
		c0.684-0.332,1.839-0.613,2.628-0.613c2.207,0,3.135,0.999,3.135,3.329v3.94c0,0.719,0,1.262,0.088,1.875h-1.086V93.938z
		 M157.469,90.873h-0.315c-1.91,0-4.187,0.193-4.187,2.154c0,1.174,0.841,1.611,1.857,1.611c2.593,0,2.645-2.26,2.645-3.223V90.873z
		"/>
	<path d="M166.277,87.387h-2.032v5.781c0,0.806,0.298,1.471,1.191,1.471c0.42,0,0.701-0.087,1.016-0.209l0.07,0.91
		c-0.263,0.105-0.806,0.245-1.349,0.245c-1.962,0-2.032-1.349-2.032-2.978v-5.221h-1.752v-0.945h1.752v-2.154l1.104-0.386v2.54
		h2.032V87.387z"/>
	<path d="M170.584,84.059h-1.104v-1.471h1.104V84.059z M169.48,86.441h1.104v8.934h-1.104V86.441z"/>
	<path d="M174.594,88.543c0-0.683,0-1.383-0.07-2.102h1.068v1.594h0.035c0.368-0.806,1.033-1.805,2.89-1.805
		c2.207,0,3.048,1.473,3.048,3.434v5.711h-1.104v-5.43c0-1.682-0.596-2.769-2.12-2.769c-2.014,0-2.645,1.77-2.645,3.259v4.939
		h-1.104V88.543z"/>
	<path d="M192.633,94.639c0,2.488-1.121,4.52-4.187,4.52c-1.173,0-2.242-0.332-2.697-0.473l0.087-1.104
		c0.683,0.351,1.664,0.631,2.627,0.631c2.838,0,3.083-2.067,3.083-4.59h-0.035c-0.596,1.297-1.576,1.752-2.715,1.752
		c-2.855,0-3.766-2.487-3.766-4.467c0-2.715,1.051-4.678,3.678-4.678c1.191,0,1.962,0.158,2.785,1.227h0.035v-1.016h1.104V94.639z
		 M188.814,94.43c1.997,0,2.715-1.893,2.715-3.521c0-2.154-0.63-3.731-2.645-3.731c-2.103,0-2.646,1.997-2.646,3.731
		C186.239,92.66,186.94,94.43,188.814,94.43z"/>
	<path d="M202.507,82.237h1.104v5.71h0.035c0.158-0.438,1.034-1.717,2.785-1.717c2.628,0,3.679,1.963,3.679,4.678
		c0,2.645-1.226,4.677-3.679,4.677c-1.278,0-2.189-0.49-2.785-1.629h-0.035v1.419h-1.104V82.237z M206.256,87.177
		c-2.015,0-2.646,2.103-2.646,3.731s0.684,3.73,2.646,3.73c2.103,0,2.646-1.996,2.646-3.73S208.358,87.177,206.256,87.177z"/>
	<path d="M218.708,93.938h-0.035c-0.49,1.069-1.734,1.646-2.838,1.646c-2.54,0-2.943-1.716-2.943-2.522
		c0-2.995,3.188-3.135,5.501-3.135h0.21v-0.456c0-1.524-0.543-2.295-2.032-2.295c-0.928,0-1.804,0.21-2.627,0.735v-1.068
		c0.683-0.332,1.839-0.613,2.627-0.613c2.208,0,3.136,0.999,3.136,3.329v3.94c0,0.719,0,1.262,0.088,1.875h-1.086V93.938z
		 M218.603,90.873h-0.315c-1.909,0-4.187,0.193-4.187,2.154c0,1.174,0.841,1.611,1.857,1.611c2.592,0,2.645-2.26,2.645-3.223V90.873
		z"/>
	<path d="M223.451,82.237h1.105v5.71h0.033c0.158-0.438,1.035-1.717,2.785-1.717c2.629,0,3.68,1.963,3.68,4.678
		c0,2.645-1.227,4.677-3.68,4.677c-1.277,0-2.189-0.49-2.785-1.629h-0.033v1.419h-1.105V82.237z M227.201,87.177
		c-2.016,0-2.645,2.103-2.645,3.731s0.682,3.73,2.645,3.73c2.102,0,2.645-1.996,2.645-3.73S229.302,87.177,227.201,87.177z"/>
	<path d="M237.181,96.706c-0.42,1.227-1.051,2.452-2.295,2.452c-0.402,0-0.822-0.053-1.191-0.14l0.105-0.946
		c0.211,0.07,0.42,0.141,0.824,0.141c0.945,0,1.26-0.789,1.611-1.944l0.227-0.788l-3.17-9.039h1.209l2.504,7.462l-0.018-0.017h0.035
		l2.576-7.445h1.156L237.181,96.706z"/>
	<path d="M254.746,93.938h-0.035c-0.49,1.069-1.734,1.646-2.838,1.646c-2.539,0-2.941-1.716-2.941-2.522
		c0-2.995,3.188-3.135,5.5-3.135h0.209v-0.456c0-1.524-0.543-2.295-2.031-2.295c-0.928,0-1.805,0.21-2.627,0.735v-1.068
		c0.682-0.332,1.838-0.613,2.627-0.613c2.207,0,3.135,0.999,3.135,3.329v3.94c0,0.719,0,1.262,0.088,1.875h-1.086V93.938z
		 M254.64,90.873h-0.314c-1.91,0-4.188,0.193-4.188,2.154c0,1.174,0.842,1.611,1.857,1.611c2.592,0,2.645-2.26,2.645-3.223V90.873z"
		/>
	<path d="M259.595,88.543c0-0.683,0-1.383-0.07-2.102h1.07v1.594h0.033c0.369-0.806,1.035-1.805,2.891-1.805
		c2.207,0,3.049,1.473,3.049,3.434v5.711h-1.104v-5.43c0-1.682-0.596-2.769-2.119-2.769c-2.016,0-2.646,1.77-2.646,3.259v4.939
		h-1.104V88.543z"/>
	<path d="M277.634,95.375h-1.104v-1.419h-0.035c-0.596,1.139-1.506,1.629-2.785,1.629c-2.451,0-3.678-2.032-3.678-4.677
		c0-2.715,1.051-4.678,3.678-4.678c1.752,0,2.627,1.279,2.785,1.717h0.035v-5.71h1.104V95.375z M273.886,94.639
		c1.961,0,2.645-2.102,2.645-3.73s-0.684-3.731-2.645-3.731c-2.102,0-2.645,1.997-2.645,3.731S271.785,94.639,273.886,94.639z"/>
	<path d="M293.429,87.633c-0.596-0.264-1.313-0.456-1.908-0.456c-2.154,0-3.363,1.56-3.363,3.731c0,2.031,1.227,3.73,3.24,3.73
		c0.701,0,1.35-0.157,2.014-0.402l0.105,1.033c-0.752,0.264-1.453,0.315-2.295,0.315c-2.873,0-4.273-2.189-4.273-4.677
		c0-2.75,1.77-4.678,4.414-4.678c1.068,0,1.84,0.246,2.154,0.352L293.429,87.633z"/>
	<path d="M296.615,82.237h1.104v5.71h0.035c0.473-0.98,1.473-1.717,2.785-1.717c2.4,0,3.049,1.595,3.049,3.802v5.343h-1.104V90.05
		c0-1.542-0.299-2.873-2.119-2.873c-1.963,0-2.646,1.856-2.646,3.416v4.782h-1.104V82.237z"/>
	<path d="M308.681,84.059h-1.104v-1.471h1.104V84.059z M307.578,86.441h1.104v8.934h-1.104V86.441z"/>
	<path d="M312.691,82.237h1.104v13.138h-1.104V82.237z"/>
	<path d="M324.88,95.375h-1.104v-1.419h-0.035c-0.596,1.139-1.506,1.629-2.785,1.629c-2.451,0-3.678-2.032-3.678-4.677
		c0-2.715,1.051-4.678,3.678-4.678c1.752,0,2.627,1.279,2.785,1.717h0.035v-5.71h1.104V95.375z M321.132,94.639
		c1.961,0,2.645-2.102,2.645-3.73s-0.684-3.731-2.645-3.731c-2.102,0-2.645,1.997-2.645,3.731S319.031,94.639,321.132,94.639z"/>
</g>
<g>
	<path d="M31.501,29.501c3.437,0,5.394,0.573,6.968,1.671c1.623,1.146,2.482,2.864,2.482,5.25c0,4.2-3.962,6.253-6.253,6.825v0.096
		c4.344,0.621,8.257,3.198,8.257,8.019c0,3.389-1.67,5.775-4.439,7.351c-2.434,1.336-5.489,1.813-9.116,1.813H18.424v-1.098
		c4.009-0.287,4.391-0.621,4.391-5.823V36.422c-0.047-5.202-0.334-5.537-4.104-5.823v-1.098H31.501z M26.824,43.009h3.007
		c4.582,0,6.873-2.148,6.873-6.062c0-2.864-1.193-6.062-6.825-6.062c-1.575,0-2.244,0.143-2.625,0.287
		c-0.286,0.095-0.429,0.286-0.429,1.241V43.009z M26.824,44.393v10.405c0,3.198,0.62,4.296,4.104,4.248
		c4.009,0,7.398-2.005,7.398-7.064c0-5.203-3.818-7.589-8.734-7.589H26.824z"/>
	<path d="M63.381,56.421c-2.625,3.723-5.918,4.677-7.208,4.677c-6.062,0-9.689-4.534-9.689-10.071
		c0-6.396,4.487-11.789,10.214-11.789c3.723,0,6.825,3.437,6.825,6.634c0,1.479-0.143,1.575-1.002,1.766
		c-0.668,0.143-6.586,0.62-12.505,0.811c-0.143,7.112,4.343,9.594,7.78,9.594c1.575,0,3.007-0.573,4.916-2.291L63.381,56.421z
		 M58.608,46.588c0.668,0,0.859-0.239,0.859-1.527c0-1.909-1.527-4.2-4.009-4.2c-2.291,0-4.773,2.339-5.155,5.871L58.608,46.588z"/>
	<path d="M80.134,61.098c-1.623-0.287-2.338-1.909-2.625-3.103c-2.004,1.289-4.582,3.103-5.584,3.103
		c-3.484,0-5.728-2.864-5.728-5.489c0-2.196,1.146-3.818,3.627-4.821c2.339-0.955,6.253-2.339,7.685-3.341v-1.623
		c0-2.959-1.384-4.534-3.914-4.534c-2.339,0-3.341,2.004-3.866,4.009c-0.143,0.573-0.573,0.907-1.098,0.907
		c-0.764,0-2.052-0.764-2.052-1.623c0-0.621,0.572-1.289,1.623-2.053c1.146-0.859,3.961-2.673,7.35-3.293
		c1.337,0,2.816,0.429,3.771,1.146c1.575,1.241,1.813,2.911,1.813,4.629v10.739c0,1.766,0.621,2.578,1.336,2.578
		c0.382,0,1.193-0.191,2.053-0.621l0.429,1.05L80.134,61.098z M77.509,48.975c-1.05,0.43-3.914,1.719-4.82,2.196
		c-1.671,0.907-2.482,1.861-2.482,3.58c0,2.53,1.719,3.723,3.15,3.723c1.098,0,2.864-0.859,4.152-1.862V48.975z"/>
	<path d="M102.232,43.868c0-1.766-0.477-2.148-1.479-2.243l-2.291-0.287v-1.002c2.196-0.096,5.68-0.573,7.494-0.859v16.706
		c0,1.909,0.382,2.052,1.384,2.1l2.101,0.095v1.05c-2.005,0.238-5.489,1.193-6.921,1.67l-0.287-0.287v-3.389
		c-1.098,0.859-2.386,1.814-3.627,2.53c-1.384,0.812-2.577,1.146-3.771,1.146c-3.389,0-5.966-1.766-5.966-6.539V43.868
		c0-1.766-0.429-2.148-1.527-2.291l-1.479-0.239v-1.002c1.432-0.096,4.916-0.573,6.73-0.859v13.412c0,4.439,2.052,5.489,4.2,5.489
		c1.67,0,3.484-0.764,5.441-2.434V43.868z"/>
	<path d="M117.651,54.225c0,3.723,1.766,4.391,3.055,4.391c0.859,0,1.909-0.382,2.816-0.907l0.477,1.05l-3.914,1.957
		c-0.478,0.239-1.098,0.382-1.432,0.382c-3.055,0-4.725-1.957-4.725-5.775V41.625h-3.484l-0.191-0.477l1.384-1.337h2.291v-3.007
		l3.103-3.15h0.62v6.157h5.537c0.382,0.525,0.239,1.289-0.334,1.814h-5.203V54.225z"/>
	<path d="M132.73,56.229c0,2.673,0.238,2.912,3.437,3.198v1.098h-10.548v-1.098c3.15-0.287,3.389-0.525,3.389-3.198V45.204
		c0-2.864-0.095-2.911-3.246-3.293v-0.859c2.196-0.478,4.534-1.05,6.969-1.909V56.229z M133.351,30.599
		c0,1.432-1.098,2.577-2.481,2.577c-1.337,0-2.482-1.146-2.482-2.577c0-1.48,1.146-2.625,2.482-2.625
		C132.253,27.974,133.351,29.119,133.351,30.599z"/>
	<path d="M145.14,41.625v14.605c0,2.625,0.238,2.864,4.248,3.198v1.098h-11.121v-1.098c2.911-0.334,3.15-0.573,3.15-3.198V41.625
		h-3.389l-0.191-0.477l1.336-1.337h2.243v-0.716c0-1.957,0.191-3.437,0.478-4.295c0.334-0.955,1.002-3.437,3.58-5.632
		c1.861-1.527,3.58-2.291,5.68-2.529c1.289,0.095,2.721,0.811,3.58,1.766c0.477,0.525,0.382,0.907,0.19,1.336
		c-0.143,0.382-0.572,0.859-0.907,1.193c-0.573,0.477-0.955,0.43-1.384,0.048c-1.05-1.002-2.481-1.957-4.057-1.957
		c-0.716,0-1.479,0.43-2.1,1.289c-0.668,0.859-1.384,3.437-1.336,7.494v2.004h5.918c0.239,0.525,0.047,1.527-0.478,1.814H145.14z"/>
	<path d="M168.192,43.868c0-1.766-0.477-2.148-1.479-2.243l-2.291-0.287v-1.002c2.195-0.096,5.68-0.573,7.494-0.859v16.706
		c0,1.909,0.382,2.052,1.384,2.1l2.1,0.095v1.05c-2.004,0.238-5.489,1.193-6.92,1.67l-0.287-0.287v-3.389
		c-1.098,0.859-2.386,1.814-3.627,2.53c-1.384,0.812-2.577,1.146-3.771,1.146c-3.389,0-5.966-1.766-5.966-6.539V43.868
		c0-1.766-0.43-2.148-1.527-2.291l-1.479-0.239v-1.002c1.432-0.096,4.916-0.573,6.73-0.859v13.412c0,4.439,2.052,5.489,4.2,5.489
		c1.67,0,3.484-0.764,5.441-2.434V43.868z"/>
	<path d="M180.029,32.365c0-2.816-0.096-2.864-3.389-3.103v-0.955c2.291-0.43,5.394-1.193,7.112-1.67v29.592
		c0,2.673,0.239,2.912,3.484,3.198v1.098h-10.691v-1.098c3.246-0.287,3.484-0.525,3.484-3.198V32.365z"/>
	<path d="M212.915,29.501c3.436,0,5.393,0.573,6.968,1.671c1.623,1.146,2.482,2.864,2.482,5.25c0,4.2-3.961,6.253-6.252,6.825v0.096
		c4.344,0.621,8.258,3.198,8.258,8.019c0,3.389-1.672,5.775-4.44,7.351c-2.434,1.336-5.488,1.813-9.116,1.813h-10.978v-1.098
		c4.009-0.287,4.391-0.621,4.391-5.823V36.422c-0.048-5.202-0.334-5.537-4.104-5.823v-1.098H212.915z M208.237,43.009h3.007
		c4.582,0,6.873-2.148,6.873-6.062c0-2.864-1.193-6.062-6.825-6.062c-1.575,0-2.243,0.143-2.625,0.287
		c-0.287,0.095-0.43,0.286-0.43,1.241V43.009z M208.237,44.393v10.405c0,3.198,0.62,4.296,4.104,4.248
		c4.009,0,7.398-2.005,7.398-7.064c0-5.203-3.818-7.589-8.735-7.589H208.237z"/>
	<path d="M244.794,56.421c-2.625,3.723-5.92,4.677-7.207,4.677c-6.063,0-9.689-4.534-9.689-10.071
		c0-6.396,4.486-11.789,10.213-11.789c3.725,0,6.826,3.437,6.826,6.634c0,1.479-0.143,1.575-1.002,1.766
		c-0.668,0.143-6.588,0.62-12.506,0.811c-0.143,7.112,4.344,9.594,7.781,9.594c1.574,0,3.006-0.573,4.916-2.291L244.794,56.421z
		 M240.021,46.588c0.668,0,0.859-0.239,0.859-1.527c0-1.909-1.527-4.2-4.01-4.2c-2.291,0-4.773,2.339-5.154,5.871L240.021,46.588z"
		/>
	<path d="M262.974,42.149c1.002,1.098,1.527,2.625,1.527,4.009c0,5.06-4.439,7.542-8.209,7.542c-0.287,0-0.668,0-1.385-0.048
		c-1.051,0.382-2.338,1.336-2.338,2.052c0,0.955,0.859,1.623,3.055,1.623c1.432,0,3.436-0.048,5.25-0.048
		c2.242,0,6.443,0.668,6.443,5.346c0,4.964-5.488,9.451-11.359,9.451c-5.824,0-8.354-3.293-8.354-5.871
		c0-1.146,0.383-1.957,0.955-2.577c0.621-0.716,2.912-2.435,4.295-3.341c-1.861-0.429-3.244-1.479-3.865-2.53
		c-0.383-0.668-0.479-1.384-0.43-1.861c1.623-0.573,3.676-1.813,4.678-2.673c-2.863-0.907-4.869-3.246-4.869-6.205
		c0-5.25,4.773-7.78,8.305-7.78c1.719,0,3.199,0.429,4.393,1.146c2.195-0.096,4.295-0.334,6.395-0.621l0.238,0.382
		c-0.381,0.668-1.383,1.909-2.051,2.195L262.974,42.149z M264.31,64.821c0-2.101-1.002-3.293-2.434-3.866
		c-1.385-0.525-2.959-0.621-4.869-0.621c-1.717,0-3.006,0.382-3.961,1.146c-0.955,0.812-1.766,1.909-1.766,3.437
		c0,2.912,2.625,4.916,6.348,4.916C262.544,69.833,264.31,67.017,264.31,64.821z M252.283,46.016c0,3.723,1.814,6.348,4.535,6.348
		c1.908,0,3.912-1.67,3.912-5.441c0-3.532-1.717-6.348-4.486-6.348C254.287,40.574,252.283,42.483,252.283,46.016z"/>
	<path d="M276.623,56.229c0,2.673,0.24,2.912,3.438,3.198v1.098h-10.549v-1.098c3.15-0.287,3.389-0.525,3.389-3.198V45.204
		c0-2.864-0.096-2.911-3.244-3.293v-0.859c2.195-0.478,4.533-1.05,6.967-1.909V56.229z M277.244,30.599
		c0,1.432-1.098,2.577-2.482,2.577c-1.336,0-2.48-1.146-2.48-2.577c0-1.48,1.145-2.625,2.48-2.625
		C276.146,27.974,277.244,29.119,277.244,30.599z"/>
	<path d="M289.033,42.722c0.906-0.668,1.957-1.336,3.197-2.1c1.432-0.859,2.625-1.384,4.105-1.384c3.914,0,6.061,2.577,6.061,6.348
		v10.644c0,2.673,0.24,2.912,3.008,3.198v1.098h-10.119v-1.098c3.15-0.287,3.389-0.525,3.389-3.198v-9.164
		c0-2.768-0.906-5.154-4.438-5.154c-1.861,0-3.771,1.002-5.203,2.243v12.075c0,2.673,0.238,2.912,3.055,3.198v1.098h-10.311v-1.098
		c3.295-0.287,3.533-0.525,3.533-3.198V45.204c0-2.864-0.096-2.911-3.246-3.293v-0.859c2.195-0.478,4.535-1.05,6.969-1.909V42.722z"
		/>
	<path d="M314.806,42.722c0.906-0.668,1.957-1.336,3.197-2.1c1.432-0.859,2.625-1.384,4.105-1.384c3.914,0,6.061,2.577,6.061,6.348
		v10.644c0,2.673,0.24,2.912,3.008,3.198v1.098h-10.119v-1.098c3.15-0.287,3.389-0.525,3.389-3.198v-9.164
		c0-2.768-0.906-5.154-4.438-5.154c-1.861,0-3.771,1.002-5.203,2.243v12.075c0,2.673,0.238,2.912,3.055,3.198v1.098H307.55v-1.098
		c3.295-0.287,3.533-0.525,3.533-3.198V45.204c0-2.864-0.096-2.911-3.246-3.293v-0.859c2.195-0.478,4.535-1.05,6.969-1.909V42.722z"
		/>
	<path d="M340.58,56.229c0,2.673,0.238,2.912,3.436,3.198v1.098h-10.547v-1.098c3.15-0.287,3.389-0.525,3.389-3.198V45.204
		c0-2.864-0.096-2.911-3.246-3.293v-0.859c2.195-0.478,4.535-1.05,6.969-1.909V56.229z M341.201,30.599
		c0,1.432-1.098,2.577-2.482,2.577c-1.336,0-2.482-1.146-2.482-2.577c0-1.48,1.146-2.625,2.482-2.625
		C340.103,27.974,341.201,29.119,341.201,30.599z"/>
	<path d="M352.988,42.722c0.908-0.668,1.957-1.336,3.199-2.1c1.432-0.859,2.625-1.384,4.104-1.384c3.914,0,6.063,2.577,6.063,6.348
		v10.644c0,2.673,0.238,2.912,3.008,3.198v1.098h-10.119v-1.098c3.15-0.287,3.389-0.525,3.389-3.198v-9.164
		c0-2.768-0.906-5.154-4.439-5.154c-1.861,0-3.77,1.002-5.203,2.243v12.075c0,2.673,0.24,2.912,3.055,3.198v1.098h-10.309v-1.098
		c3.293-0.287,3.531-0.525,3.531-3.198V45.204c0-2.864-0.096-2.911-3.244-3.293v-0.859c2.195-0.478,4.533-1.05,6.967-1.909V42.722z"
		/>
	<path d="M387.115,42.149c1.002,1.098,1.527,2.625,1.527,4.009c0,5.06-4.439,7.542-8.211,7.542c-0.285,0-0.668,0-1.383-0.048
		c-1.051,0.382-2.34,1.336-2.34,2.052c0,0.955,0.859,1.623,3.055,1.623c1.432,0,3.438-0.048,5.25-0.048
		c2.244,0,6.443,0.668,6.443,5.346c0,4.964-5.488,9.451-11.359,9.451c-5.822,0-8.352-3.293-8.352-5.871
		c0-1.146,0.381-1.957,0.953-2.577c0.621-0.716,2.912-2.435,4.297-3.341c-1.861-0.429-3.246-1.479-3.867-2.53
		c-0.381-0.668-0.477-1.384-0.43-1.861c1.623-0.573,3.676-1.813,4.678-2.673c-2.863-0.907-4.867-3.246-4.867-6.205
		c0-5.25,4.771-7.78,8.305-7.78c1.719,0,3.197,0.429,4.391,1.146c2.195-0.096,4.295-0.334,6.396-0.621l0.238,0.382
		c-0.383,0.668-1.385,1.909-2.053,2.195L387.115,42.149z M388.451,64.821c0-2.101-1.002-3.293-2.436-3.866
		c-1.383-0.525-2.959-0.621-4.867-0.621c-1.719,0-3.008,0.382-3.961,1.146c-0.955,0.812-1.768,1.909-1.768,3.437
		c0,2.912,2.625,4.916,6.35,4.916C386.685,69.833,388.451,67.017,388.451,64.821z M376.423,46.016c0,3.723,1.813,6.348,4.533,6.348
		c1.91,0,3.914-1.67,3.914-5.441c0-3.532-1.719-6.348-4.486-6.348C378.427,40.574,376.423,42.483,376.423,46.016z"/>
	<path d="M395.554,53.843c0.764,2.768,2.912,5.823,5.729,5.823c1.719,0,3.389-1.193,3.389-3.532c0-1.957-1.098-3.341-3.723-4.487
		c-3.104-1.384-5.729-3.007-5.729-6.157c0-3.437,2.961-6.252,7.113-6.252c1.717,0,3.055,0.382,4.008,0.811
		c0.479,1.098,0.955,3.771,1.051,4.582l-1.146,0.287c-1.432-3.15-2.959-4.248-4.771-4.248c-2.148,0-3.15,1.67-3.15,3.246
		c0,1.957,2.053,3.293,4.152,4.152c3.484,1.432,5.775,3.293,5.775,6.491c0,4.391-4.057,6.539-7.686,6.539
		c-2.434,0-4.629-1.002-5.535-1.766c-0.287-0.716-0.574-3.341-0.574-5.202L395.554,53.843z"/>
</g>
<g>
	<rect x="18.812" y="66.102" fill="#D4DB90" width="5.425" height="5.426"/>
	<rect x="69.804" y="66.102" fill="#D4DB90" width="5.426" height="5.426"/>
	<rect x="120.797" y="66.102" fill="#D4DB90" width="5.426" height="5.426"/>
	<rect x="171.791" y="66.102" fill="#D4DB90" width="5.426" height="5.426"/>
	<rect x="222.784" y="66.102" fill="#D4DB90" width="5.424" height="5.426"/>
	<rect x="296.504" y="66.102" fill="#D4DB90" width="5.426" height="5.426"/>
	<rect x="347.498" y="66.102" fill="#D4DB90" width="5.426" height="5.426"/>
</g>
<g>
	<rect x="31.56" y="66.102" fill="#FFEEBB" width="5.425" height="5.426"/>
	<rect x="82.554" y="66.102" fill="#FFEEBB" width="5.423" height="5.426"/>
	<rect x="133.546" y="66.102" fill="#FFEEBB" width="5.424" height="5.426"/>
	<rect x="184.54" y="66.102" fill="#FFEEBB" width="5.424" height="5.426"/>
	<rect x="235.532" y="66.102" fill="#FFEEBB" width="5.424" height="5.426"/>
	<rect x="309.253" y="66.102" fill="#FFEEBB" width="5.424" height="5.426"/>
	<rect x="360.247" y="66.102" fill="#FFEEBB" width="5.424" height="5.426"/>
</g>
<g>
	<rect x="44.308" y="66.102" fill="#F9C4CE" width="5.426" height="5.426"/>
	<rect x="95.3" y="66.102" fill="#F9C4CE" width="5.426" height="5.426"/>
	<rect x="146.293" y="66.102" fill="#F9C4CE" width="5.426" height="5.426"/>
	<rect x="197.287" y="66.102" fill="#F9C4CE" width="5.427" height="5.426"/>
	<rect x="271.007" y="66.102" fill="#F9C4CE" width="5.426" height="5.426"/>
	<rect x="322" y="66.102" fill="#F9C4CE" width="5.426" height="5.426"/>
	<rect x="392.139" y="66.486" fill="#F9C4CE" width="5.426" height="5.427"/>
</g>
<g>
	<rect x="57.055" y="66.102" fill="#B7D1ED" width="5.428" height="5.426"/>
	<rect x="108.048" y="66.102" fill="#B7D1ED" width="5.428" height="5.426"/>
	<rect x="159.042" y="66.102" fill="#B7D1ED" width="5.427" height="5.426"/>
	<rect x="210.036" y="66.102" fill="#B7D1ED" width="5.426" height="5.426"/>
	<rect x="283.754" y="66.102" fill="#B7D1ED" width="5.427" height="5.426"/>
	<rect x="334.749" y="66.102" fill="#B7D1ED" width="5.426" height="5.426"/>
	<rect x="403.735" y="66.486" fill="#B7D1ED" width="5.427" height="5.427"/>
</g>
</svg>
